<svg xmlns="http://www.w3.org/2000/svg" xmlns:xlink="http://www.w3.org/1999/xlink" viewBox="0 0 95.69 82.87"><defs><style>.cls-1{fill:url(#linear-gradient);}.cls-2{fill:url(#linear-gradient-2);}.cls-3{fill:url(#linear-gradient-3);}.cls-4{fill:url(#linear-gradient-4);}.cls-5{fill:url(#linear-gradient-5);}.cls-6{fill:url(#linear-gradient-6);}.cls-7{fill:url(#linear-gradient-7);}.cls-8{fill:url(#linear-gradient-8);}.cls-9{fill:url(#linear-gradient-9);}</style><linearGradient id="linear-gradient" x1="50.6" y1="17.35" x2="14.53" y2="63.85" gradientUnits="userSpaceOnUse"><stop offset="0" stop-color="#23324f"/><stop offset="0.2" stop-color="#29477c"/><stop offset="0.47" stop-color="#3160b0"/><stop offset="0.7" stop-color="#3673d6"/><stop offset="0.88" stop-color="#3a7eed"/><stop offset="1" stop-color="#3b82f6"/></linearGradient><linearGradient id="linear-gradient-2" x1="49.43" y1="25.52" x2="12.66" y2="75.11" gradientUnits="userSpaceOnUse"><stop offset="0" stop-color="#23324f"/><stop offset="0.18" stop-color="#273e68"/><stop offset="0.58" stop-color="#305da9"/><stop offset="1" stop-color="#3b82f6"/></linearGradient><linearGradient id="linear-gradient-3" x1="32.99" y1="2.53" x2="48.96" y2="41.13" gradientUnits="userSpaceOnUse"><stop offset="0" stop-color="#235372"/><stop offset="0.05" stop-color="#25567c"/><stop offset="0.37" stop-color="#2e69b0"/><stop offset="0.64" stop-color="#3577d6"/><stop offset="0.86" stop-color="#397fed"/><stop offset="1" stop-color="#3b82f6"/></linearGradient><linearGradient id="linear-gradient-4" x1="41.46" y1="-0.53" x2="55.48" y2="33.36" gradientUnits="userSpaceOnUse"><stop offset="0" stop-color="#d0d4d2"/><stop offset="1" stop-color="#93c5fd"/></linearGradient><linearGradient id="linear-gradient-5" x1="72.48" y1="56.77" x2="65.21" y2="99.16" xlink:href="#linear-gradient"/><linearGradient id="linear-gradient-6" x1="47.62" y1="50.4" x2="73.25" y2="69.62" xlink:href="#linear-gradient-3"/><linearGradient id="linear-gradient-7" x1="80.96" y1="82.65" x2="54.39" y2="53.23" gradientUnits="userSpaceOnUse"><stop offset="0" stop-color="#3b82f6"/><stop offset="1" stop-color="#51bbac" stop-opacity="0"/></linearGradient><linearGradient id="linear-gradient-8" x1="42.99" y1="67.28" x2="43.09" y2="67.28" gradientUnits="userSpaceOnUse"><stop offset="0" stop-color="#7f2bff"/><stop offset="1" stop-color="#fd71ff"/></linearGradient><linearGradient id="linear-gradient-9" x1="92.85" y1="80.58" x2="95.69" y2="80.58" xlink:href="#linear-gradient-8"/></defs><g id="Layer_2" data-name="Layer 2"><g id="OBJECTS"><path class="cls-1" d="M47.84,0,0,82.87,51.56,36.51A19,19,0,0,0,55.3,12.92Z"/><path class="cls-2" d="M55.3,12.92,52.12,7.4,17.76,66.9l33.8-30.39A19,19,0,0,0,55.3,12.92Z"/><path class="cls-3" d="M62,24.46,47.84,0,43,8.41c10.89,18,1,44.12-5.86,52.52l22.22-20A13.25,13.25,0,0,0,62,24.46Z"/><path class="cls-4" d="M62,24.46,47.84,0h0L58.92,25.32c4.09,11.51-5.21,18.81-7.6,22.84l8-7.22A13.25,13.25,0,0,0,62,24.46Z"/><path class="cls-5" d="M58.17,53.66a14.81,14.81,0,0,1,22.74,3.61l14.78,25.6C88.39,70.22,52.61,58.67,43,67.32h0Z"/><path class="cls-6" d="M95.69,82.87C79.45,54.74,59.28,52.66,43,67.32L59.61,52.38A13.25,13.25,0,0,1,80,55.6Z"/><path class="cls-7" d="M81,59.11l12.93,20.7L80,55.6A13.26,13.26,0,0,0,59.6,52.38L43.16,67.17a47.84,47.84,0,0,1,4.47-3.55l10.26-8.17A15.06,15.06,0,0,1,81,59.11Z"/><path class="cls-8" d="M43.05,67.27l-.06,0,.1-.08Z"/><path class="cls-9" d="M92.85,78.29c1,1.45,1.91,3,2.84,4.58L94,79.9C93.6,79.35,93.23,78.82,92.85,78.29Z"/></g></g></svg>